Coordinates
nRows=246
nColumns=2
inDegrees=yes
endheader
time	ankle_angle_r	
2.92742	 -0.381491	
2.96069	 -0.401389	
2.99395	 -0.407400	
3.02722	 -0.398818	
3.06048	 -0.386138	
3.09375	 -0.380998	
3.12702	 -0.385419	
3.16028	 -0.390089	
3.19355	 -0.387339	
3.22681	 -0.378419	
3.26008	 -0.368191	
3.29335	 -0.362402	
3.32661	 -0.363853	
3.35988	 -0.369780	
3.39315	 -0.377429	
3.42641	 -0.382991	
3.45968	 -0.380972	
3.49294	 -0.375012	
3.52621	 -0.372854	
3.55948	 -0.371617	
3.59274	 -0.367777	
3.62601	 -0.366210	
3.65927	 -0.369456	
3.69254	 -0.375902	
3.72581	 -0.382509	
3.75907	 -0.384385	
3.79234	 -0.381148	
3.8256	 -0.375973	
3.85887	 -0.371246	
3.89214	 -0.371519	
3.9254	 -0.377280	
3.95867	 -0.380026	
3.99194	 -0.376271	
4.0252	 -0.372615	
4.05847	 -0.372070	
4.09173	 -0.372472	
4.125	 -0.372691	
4.15827	 -0.370512	
4.19153	 -0.365228	
4.2248	 -0.360345	
4.25806	 -0.358981	
4.29133	 -0.361931	
4.3246	 -0.368376	
4.35786	 -0.377081	
4.39113	 -0.385504	
4.4244	 -0.387752	
4.45766	 -0.381100	
4.49093	 -0.371616	
4.52419	 -0.366203	
4.55746	 -0.366689	
4.59073	 -0.372499	
4.62399	 -0.378573	
4.65726	 -0.378768	
4.69052	 -0.376290	
4.72379	 -0.376391	
4.75706	 -0.376163	
4.79032	 -0.373147	
4.82359	 -0.371248	
4.85685	 -0.374486	
4.89012	 -0.382158	
4.92339	 -0.390342	
4.95665	 -0.396584	
4.98992	 -0.400424	
5.02319	 -0.399927	
5.05645	 -0.395878	
5.08972	 -0.394868	
5.12298	 -0.398565	
5.15625	 -0.401898	
5.18952	 -0.403482	
5.22278	 -0.404216	
5.25605	 -0.403017	
5.28931	 -0.400025	
5.32258	 -0.397439	
5.35585	 -0.397970	
5.38911	 -0.401089	
5.42238	 -0.400648	
5.45565	 -0.394362	
5.48891	 -0.389629	
5.52218	 -0.391631	
5.55544	 -0.396907	
5.58871	 -0.399931	
5.62198	 -0.397698	
5.65524	 -0.393351	
5.68851	 -0.393447	
5.72177	 -0.397088	
5.75504	 -0.397430	
5.78831	 -0.392943	
5.82157	 -0.387438	
5.85484	 -0.384909	
5.8881	 -0.388021	
5.92137	 -0.394707	
5.95464	 -0.399329	
5.9879	 -0.398957	
6.02117	 -0.394454	
6.05444	 -0.388535	
6.0877	 -0.382581	
6.12097	 -0.376613	
6.15423	 -0.373889	
6.1875	 -0.376462	
6.22077	 -0.377888	
6.25403	 -0.371534	
6.2873	 -0.360626	
6.32056	 -0.352453	
6.35383	 -0.351084	
6.3871	 -0.356100	
6.42036	 -0.360671	
6.45363	 -0.357187	
6.4869	 -0.347295	
6.52016	 -0.338632	
6.55343	 -0.334336	
6.58669	 -0.332286	
6.61996	 -0.331625	
6.65323	 -0.334668	
6.68649	 -0.341619	
6.71976	 -0.347447	
6.75302	 -0.346814	
6.78629	 -0.339121	
6.81956	 -0.327941	
6.85282	 -0.318354	
6.88609	 -0.312312	
6.91935	 -0.305798	
6.95262	 -0.297439	
6.98589	 -0.295705	
7.01915	 -0.308775	
7.05242	 -0.334556	
7.08569	 -0.362742	
7.11895	 -0.381526	
7.15222	 -0.387792	
7.18548	 -0.388575	
7.21875	 -0.388366	
7.25202	 -0.385698	
7.28528	 -0.380714	
7.31855	 -0.374844	
7.35181	 -0.370279	
7.38508	 -0.372139	
7.41835	 -0.380636	
7.45161	 -0.388281	
7.48488	 -0.390200	
7.51815	 -0.387394	
7.55141	 -0.382956	
7.58468	 -0.380567	
7.61794	 -0.381416	
7.65121	 -0.384020	
7.68448	 -0.387106	
7.71774	 -0.387776	
7.75101	 -0.384371	
7.78427	 -0.381109	
7.81754	 -0.380580	
7.85081	 -0.380099	
7.88407	 -0.378289	
7.91734	 -0.375776	
7.9506	 -0.374794	
7.98387	 -0.379685	
8.01714	 -0.389031	
8.0504	 -0.395021	
8.08367	 -0.394668	
8.11694	 -0.389964	
8.1502	 -0.383008	
8.18347	 -0.377682	
8.21673	 -0.375010	
8.25	 -0.370956	
8.28327	 -0.363918	
8.31653	 -0.354918	
8.3498	 -0.345180	
8.38306	 -0.338169	
8.41633	 -0.335292	
8.4496	 -0.334084	
8.48286	 -0.334944	
8.51613	 -0.340436	
8.5494	 -0.350734	
8.58266	 -0.363640	
8.61593	 -0.374364	
8.64919	 -0.380174	
8.68246	 -0.382999	
8.71573	 -0.381483	
8.74899	 -0.374399	
8.78226	 -0.370702	
8.81552	 -0.377344	
8.84879	 -0.387691	
8.88206	 -0.393633	
8.91532	 -0.394162	
8.94859	 -0.392008	
8.98185	 -0.390955	
9.01512	 -0.390899	
9.04839	 -0.388387	
9.08165	 -0.384411	
9.11492	 -0.382797	
9.14819	 -0.384785	
9.18145	 -0.389018	
9.21472	 -0.391481	
9.24798	 -0.389683	
9.28125	 -0.386980	
9.31452	 -0.387018	
9.34778	 -0.390541	
9.38105	 -0.397309	
9.41431	 -0.403247	
9.44758	 -0.403201	
9.48085	 -0.398941	
9.51411	 -0.395830	
9.54738	 -0.396304	
9.58065	 -0.399263	
9.61391	 -0.400100	
9.64718	 -0.394967	
9.68044	 -0.384851	
9.71371	 -0.372969	
9.74698	 -0.363630	
9.78024	 -0.360053	
9.81351	 -0.359760	
9.84677	 -0.359058	
9.88004	 -0.358108	
9.91331	 -0.357557	
9.94657	 -0.357671	
9.97984	 -0.358240	
10.0131	 -0.357212	
10.0464	 -0.354297	
10.0796	 -0.350688	
10.1129	 -0.346342	
10.1462	 -0.342471	
10.1794	 -0.340603	
10.2127	 -0.341618	
10.246	 -0.347094	
10.2792	 -0.354388	
10.3125	 -0.356456	
10.3458	 -0.351005	
10.379	 -0.342353	
10.4123	 -0.335811	
10.4456	 -0.333611	
10.4788	 -0.332683	
10.5121	 -0.329398	
10.5454	 -0.324878	
10.5786	 -0.319670	
10.6119	 -0.312908	
10.6452	 -0.309333	
10.6784	 -0.314104	
10.7117	 -0.322956	
10.745	 -0.327936	
10.7782	 -0.327693	
10.8115	 -0.327710	
10.8448	 -0.335419	
10.878	 -0.352477	
10.9113	 -0.370772	
10.9446	 -0.380224	
10.9778	 -0.378070	
11.0111	 -0.371598	
11.0444	 -0.372723	
11.0776	 -0.384680	
